<svg xmlns="http://www.w3.org/2000/svg" xmlns:xlink="http://www.w3.org/1999/xlink" viewBox="0 0 52.36 52.36"><defs><style>.cls-1{fill:#171717;}.cls-2{fill:url(#New_Gradient_Swatch_13);}</style><linearGradient id="New_Gradient_Swatch_13" x1="4.43" y1="53.85" x2="49.95" y2="2.44" gradientUnits="userSpaceOnUse"><stop offset="0" stop-color="#56e7f2"/><stop offset="0.29" stop-color="#c2a7de"/><stop offset="0.62" stop-color="#e8fba9"/><stop offset="0.84" stop-color="#32abdf"/><stop offset="1" stop-color="#fefcef"/></linearGradient></defs><g id="Layer_2" data-name="Layer 2"><g id="OBJECTS"><circle class="cls-1" cx="26.18" cy="26.18" r="26.18"/><path class="cls-2" d="M44.36,27.22a3.25,3.25,0,0,1-.74.26,17.45,17.45,0,0,1-34.88,0A3.18,3.18,0,0,1,8,27.22a.69.69,0,0,1-.31-.93.68.68,0,0,1,.92-.3,1.81,1.81,0,0,0,1.59,0,.69.69,0,0,1,.61,1.24,3.43,3.43,0,0,1-.7.25,16.07,16.07,0,0,0,32.12,0,3.09,3.09,0,0,1-.7-.25.69.69,0,0,1-.31-.92.7.7,0,0,1,.93-.32,1.79,1.79,0,0,0,1.58,0,.69.69,0,1,1,.62,1.23Zm-23.83.44c1.48,0,2.69-2.7,2.69-6s-1.21-6-2.69-6-2.7,2.7-2.7,6S19,27.66,20.53,27.66Zm11.31,0c1.49,0,2.69-2.7,2.69-6s-1.2-6-2.69-6-2.7,2.7-2.7,6S30.35,27.66,31.84,27.66Z"/></g></g></svg>