<svg xmlns="http://www.w3.org/2000/svg" viewBox="0 0 30.94 30.83"><defs><style>.cls-1{fill:#171717;}</style></defs><g id="Layer_2" data-name="Layer 2"><g id="OBJECTS"><path class="cls-1" d="M30.94,11.93,24.7,13a12.22,12.22,0,0,0,.24-10L20.87,7.84A12.19,12.19,0,0,0,14.59,0V6.33a12.21,12.21,0,0,0-9.85-2L8.81,9.2A12.24,12.24,0,0,0,0,14l6.24,1.1a12.21,12.21,0,0,0-3.66,9.35l5.48-3.16a12.19,12.19,0,0,0,3.22,9.51l2.17-5.95A12.18,12.18,0,0,0,22,30.1l-2.16-5.94a12.21,12.21,0,0,0,9.93-1.52l-5.48-3.16A12.22,12.22,0,0,0,30.94,11.93Z"/></g></g></svg>