<svg xmlns="http://www.w3.org/2000/svg" xmlns:xlink="http://www.w3.org/1999/xlink" viewBox="0 0 179.32 179.32"><defs><style>.cls-1{fill:#171717;}.cls-2{fill:#fff;}.cls-3{fill:url(#New_Gradient_Swatch_13);}</style><linearGradient id="New_Gradient_Swatch_13" x1="-18.15" y1="174.53" x2="188.36" y2="11.96" gradientUnits="userSpaceOnUse"><stop offset="0" stop-color="#56e7f2"/><stop offset="0.29" stop-color="#c2a7de"/><stop offset="0.62" stop-color="#e8fba9"/><stop offset="0.84" stop-color="#32abdf"/><stop offset="1" stop-color="#fefcef"/></linearGradient></defs><g id="Layer_2" data-name="Layer 2"><g id="OBJECTS"><path class="cls-1" d="M156.94,178.94c-16.14,0-37.85-11.69-56.67-30.51a142.88,142.88,0,0,1-10.61-11.85,142.88,142.88,0,0,1-10.61,11.85c-18.82,18.82-40.53,30.51-56.67,30.51-6.63,0-12.19-2.05-16.07-5.93-6.95-7-7.83-18.69-2.46-33,4.89-13.06,14.49-27.17,27-39.71A142.88,142.88,0,0,1,42.74,89.66,142.88,142.88,0,0,1,30.89,79.05C18.34,66.5,8.74,52.4,3.85,39.34-1.52,25-.64,13.26,6.31,6.31,10.19,2.43,15.75.38,22.38.38c16.14,0,37.85,11.69,56.67,30.51A142.76,142.76,0,0,1,89.66,42.73a142.76,142.76,0,0,1,10.61-11.84C119.09,12.07,140.8.38,156.94.38c6.63,0,12.19,2.05,16.07,5.93,7,7,7.83,18.69,2.46,33-4.89,13.06-14.49,27.16-27,39.71a141.29,141.29,0,0,1-11.85,10.61,141.29,141.29,0,0,1,11.85,10.61c12.55,12.54,22.15,26.65,27,39.71,5.37,14.34,4.5,26.07-2.46,33-3.88,3.88-9.44,5.93-16.07,5.93Z"/><path class="cls-2" d="M156.94,179.32h0c-16.23,0-38-11.74-56.94-30.63a142.45,142.45,0,0,1-10.34-11.51,144.36,144.36,0,0,1-10.34,11.51c-18.89,18.89-40.71,30.63-56.94,30.63-6.73,0-12.38-2.09-16.34-6-7.06-7.07-8-18.94-2.54-33.44C8.41,126.74,18,112.58,30.63,100a144,144,0,0,1,11.5-10.34,144,144,0,0,1-11.5-10.34C18,66.73,8.41,52.58,3.5,39.47-1.92,25-1,13.11,6,6c4-3.95,9.61-6,16.34-6C38.61,0,60.43,11.73,79.32,30.63a144,144,0,0,1,10.34,11.5A144.16,144.16,0,0,1,100,30.62C118.89,11.73,140.71,0,156.94,0c6.73,0,12.38,2.09,16.33,6,7.07,7.07,8,18.94,2.55,33.43-4.91,13.11-14.54,27.26-27.13,39.85a144.36,144.36,0,0,1-11.51,10.34A142.45,142.45,0,0,1,148.69,100c12.59,12.58,22.22,26.74,27.13,39.84,5.42,14.5,4.52,26.37-2.55,33.44C169.32,177.23,163.67,179.32,156.94,179.32Zm0-.75h0c6.53,0,12-2,15.8-5.83,6.85-6.84,7.69-18.43,2.38-32.63-4.87-13-14.45-27.07-27-39.58A144,144,0,0,0,136.35,90a.37.37,0,0,1-.14-.29.36.36,0,0,1,.14-.29,144,144,0,0,0,11.81-10.58c12.51-12.51,22.09-26.57,27-39.58,5.31-14.2,4.47-25.79-2.38-32.64-3.81-3.81-9.27-5.82-15.8-5.82-16,0-37.65,11.65-56.41,30.41A142.38,142.38,0,0,0,90,43a.38.38,0,0,1-.58,0A142.38,142.38,0,0,0,78.79,31.16C60,12.4,38.42.75,22.38.75c-6.53,0-12,2-15.8,5.82C-.27,13.42-1.11,25,4.2,39.21c4.87,13,14.44,27.07,27,39.58A144,144,0,0,0,43,89.37a.36.36,0,0,1,.14.29A.37.37,0,0,1,43,90a144,144,0,0,0-11.81,10.58C18.64,113,9.07,127.1,4.2,140.11c-5.31,14.2-4.47,25.79,2.38,32.63,3.8,3.81,9.27,5.83,15.8,5.83,16,0,37.65-11.65,56.41-30.41a144,144,0,0,0,10.58-11.81.38.38,0,0,1,.58,0,144,144,0,0,0,10.58,11.81C119.28,166.92,140.9,178.57,156.94,178.57Z"/><path class="cls-3" d="M89.66,128.3a134.36,134.36,0,0,0,14.14,16.59c24.92,24.93,54.33,35.93,65.67,24.58s.35-40.75-24.58-65.67A133.5,133.5,0,0,0,128.3,89.66a134.36,134.36,0,0,0,16.59-14.14c24.93-24.93,35.93-54.33,24.58-65.68S128.72,9.5,103.8,34.43A135,135,0,0,0,89.66,51,135,135,0,0,0,75.52,34.43C50.6,9.5,21.19-1.5,9.85,9.84S9.5,50.59,34.43,75.52A134.36,134.36,0,0,0,51,89.66,133.5,133.5,0,0,0,34.43,103.8C9.5,128.72-1.5,158.13,9.85,169.47s40.75.35,65.67-24.58A134.36,134.36,0,0,0,89.66,128.3Z"/></g></g></svg>